<svg width="34" height="34" viewBox="0 0 34 34" fill="none" xmlns="http://www.w3.org/2000/svg">
<rect width="34" height="34" rx="17" fill="#ECEEFE"/>
<mask id="mask0_516_7056" style="mask-type:alpha" maskUnits="userSpaceOnUse" x="5" y="5" width="24" height="24">
<rect x="5" y="5" width="24" height="24" fill="#D9D9D9"/>
</mask>
<g mask="url(#mask0_516_7056)">
<path d="M17.0002 27.7998C15.5002 27.7998 14.0959 27.5165 12.7872 26.9498C11.4792 26.3831 10.3379 25.6125 9.3632 24.6378C8.38786 23.6625 7.61686 22.5205 7.0502 21.2118C6.48353 19.9038 6.2002 18.4998 6.2002 16.9998C6.2002 15.4998 6.48353 14.0915 7.0502 12.7748C7.61686 11.4581 8.38786 10.3125 9.3632 9.3378C10.3379 8.36247 11.4792 7.59547 12.7872 7.0368C14.0959 6.4788 15.5002 6.1998 17.0002 6.1998C17.7669 6.1998 18.5129 6.2748 19.2382 6.4248C19.9629 6.5748 20.6502 6.79147 21.3002 7.0748C21.1169 7.35814 20.9669 7.65814 20.8502 7.9748C20.7335 8.29147 20.6752 8.63314 20.6752 8.9998C20.6752 9.13314 20.6835 9.26214 20.7002 9.3868C20.7169 9.51214 20.7419 9.64147 20.7752 9.7748C20.2085 9.4748 19.6085 9.24547 18.9752 9.0868C18.3419 8.9288 17.6835 8.8498 17.0002 8.8498C14.7335 8.8498 12.8085 9.64147 11.2252 11.2248C9.64186 12.8081 8.8502 14.7331 8.8502 16.9998C8.8502 19.2665 9.64186 21.1915 11.2252 22.7748C12.8085 24.3581 14.7335 25.1498 17.0002 25.1498C19.2669 25.1498 21.1919 24.3581 22.7752 22.7748C24.3585 21.1915 25.1502 19.2665 25.1502 16.9998C25.1502 16.4665 25.1002 15.9498 25.0002 15.4498C24.9002 14.9498 24.7585 14.4665 24.5752 13.9998C24.7919 14.0998 25.0212 14.1788 25.2632 14.2368C25.5045 14.2955 25.7502 14.3248 26.0002 14.3248C26.2502 14.3248 26.4919 14.2998 26.7252 14.2498C26.9585 14.1998 27.1835 14.1248 27.4002 14.0248C27.5335 14.5081 27.6335 14.9958 27.7002 15.4878C27.7669 15.9791 27.8002 16.4831 27.8002 16.9998C27.8002 18.4998 27.5209 19.9038 26.9622 21.2118C26.4042 22.5205 25.6379 23.6625 24.6632 24.6378C23.6879 25.6125 22.5419 26.3831 21.2252 26.9498C19.9085 27.5165 18.5002 27.7998 17.0002 27.7998ZM20.7002 16.1998C21.2002 16.1998 21.6169 16.0331 21.9502 15.6998C22.2835 15.3665 22.4502 14.9498 22.4502 14.4498C22.4502 13.9498 22.2835 13.5331 21.9502 13.1998C21.6169 12.8665 21.2002 12.6998 20.7002 12.6998C20.2002 12.6998 19.7835 12.8665 19.4502 13.1998C19.1169 13.5331 18.9502 13.9498 18.9502 14.4498C18.9502 14.9498 19.1169 15.3665 19.4502 15.6998C19.7835 16.0331 20.2002 16.1998 20.7002 16.1998ZM13.3002 16.1998C13.8002 16.1998 14.2169 16.0331 14.5502 15.6998C14.8835 15.3665 15.0502 14.9498 15.0502 14.4498C15.0502 13.9498 14.8835 13.5331 14.5502 13.1998C14.2169 12.8665 13.8002 12.6998 13.3002 12.6998C12.8002 12.6998 12.3835 12.8665 12.0502 13.1998C11.7169 13.5331 11.5502 13.9498 11.5502 14.4498C11.5502 14.9498 11.7169 15.3665 12.0502 15.6998C12.3835 16.0331 12.8002 16.1998 13.3002 16.1998ZM17.0002 22.9998C18.3835 22.9998 19.5669 22.6121 20.5502 21.8368C21.5335 21.0621 22.2169 20.1331 22.6002 19.0498H11.4002C11.7835 20.1331 12.4669 21.0621 13.4502 21.8368C14.4335 22.6121 15.6169 22.9998 17.0002 22.9998ZM24.6752 10.3248H24.0002C23.6335 10.3248 23.3209 10.1955 23.0622 9.9368C22.8042 9.6788 22.6752 9.36647 22.6752 8.9998C22.6752 8.63314 22.8042 8.32047 23.0622 8.0618C23.3209 7.8038 23.6335 7.6748 24.0002 7.6748H24.6752V6.9998C24.6752 6.63314 24.8042 6.32047 25.0622 6.0618C25.3209 5.8038 25.6335 5.6748 26.0002 5.6748C26.3669 5.6748 26.6795 5.8038 26.9382 6.0618C27.1962 6.32047 27.3252 6.63314 27.3252 6.9998V7.6748H28.0002C28.3669 7.6748 28.6795 7.8038 28.9382 8.0618C29.1962 8.32047 29.3252 8.63314 29.3252 8.9998C29.3252 9.36647 29.1962 9.6788 28.9382 9.9368C28.6795 10.1955 28.3669 10.3248 28.0002 10.3248H27.3252V10.9998C27.3252 11.3665 27.1962 11.6791 26.9382 11.9378C26.6795 12.1958 26.3669 12.3248 26.0002 12.3248C25.6335 12.3248 25.3209 12.1958 25.0622 11.9378C24.8042 11.6791 24.6752 11.3665 24.6752 10.9998V10.3248Z" fill="#535AF1"/>
</g>
</svg>
